<?xml version="1.0" encoding="UTF-8" standalone="no"?>
<svg
   xmlns:dc="http://purl.org/dc/elements/1.1/"
   xmlns:cc="http://creativecommons.org/ns#"
   xmlns:rdf="http://www.w3.org/1999/02/22-rdf-syntax-ns#"
   xmlns:svg="http://www.w3.org/2000/svg"
   xmlns="http://www.w3.org/2000/svg"
   xmlns:sodipodi="http://sodipodi.sourceforge.net/DTD/sodipodi-0.dtd"
   xmlns:inkscape="http://www.inkscape.org/namespaces/inkscape"
   width="76.975998mm"
   height="54.172607mm"
   viewBox="0 0 76.975998 54.172607"
   version="1.1"
   id="svg8"
   inkscape:version="1.0.2-2 (e86c870879, 2021-01-15)"
   sodipodi:docname="youtube.svg">
  <defs
     id="defs2" />
  <sodipodi:namedview
     id="base"
     pagecolor="#000000"
     bordercolor="#666666"
     borderopacity="1.0"
     inkscape:pageopacity="0.0"
     inkscape:pageshadow="2"
     inkscape:zoom="1.1013574"
     inkscape:cx="136.84594"
     inkscape:cy="185.65977"
     inkscape:document-units="mm"
     inkscape:current-layer="layer1"
     inkscape:document-rotation="0"
     showgrid="false"
     inkscape:window-width="1920"
     inkscape:window-height="1017"
     inkscape:window-x="-8"
     inkscape:window-y="-8"
     inkscape:window-maximized="1" />
  <metadata
     id="metadata5">
    <rdf:RDF>
      <cc:Work
         rdf:about="">
        <dc:format>image/svg+xml</dc:format>
        <dc:type
           rdf:resource="http://purl.org/dc/dcmitype/StillImage" />
        <dc:title></dc:title>
      </cc:Work>
    </rdf:RDF>
  </metadata>
  <g
     inkscape:label="Layer 1"
     inkscape:groupmode="layer"
     id="layer1"
     transform="translate(-52.950218,-81.43534)">
    <g
       id="g888"
       transform="matrix(0.15034374,0,0,0.15034374,52.950218,70.033571)"
       style="fill:#000000;fill-opacity:1">
      <path
         style="fill:#000000;fill-opacity:1"
         d="M 492.044,106.769 C 473.562,84.799 439.44,75.838 374.274,75.838 H 137.721 c -66.657,0 -101.358,9.54 -119.77,32.93 C 0,131.572 0,165.174 0,211.681 v 88.64 c 0,90.097 21.299,135.842 137.721,135.842 h 236.554 c 56.512,0 87.826,-7.908 108.085,-27.296 C 503.136,388.985 512,356.522 512,300.321 v -88.64 c 0,-49.045 -1.389,-82.845 -19.956,-104.912 z m -163.338,161.469 -107.418,56.14 c -2.401,1.255 -5.028,1.878 -7.65,1.878 -2.97,0 -5.933,-0.799 -8.557,-2.388 -4.942,-2.994 -7.959,-8.351 -7.959,-14.128 V 197.82 c 0,-5.767 3.009,-11.119 7.941,-14.115 4.933,-2.996 11.069,-3.201 16.187,-0.542 l 107.418,55.778 c 5.465,2.837 8.897,8.479 8.905,14.635 0.007,6.162 -3.41,11.812 -8.867,14.662 z"
         id="path833" />
      <g
         id="g835"
         style="fill:#000000;fill-opacity:1" />
      <g
         id="g837"
         style="fill:#000000;fill-opacity:1" />
      <g
         id="g839"
         style="fill:#000000;fill-opacity:1" />
      <g
         id="g841"
         style="fill:#000000;fill-opacity:1" />
      <g
         id="g843"
         style="fill:#000000;fill-opacity:1" />
      <g
         id="g845"
         style="fill:#000000;fill-opacity:1" />
      <g
         id="g847"
         style="fill:#000000;fill-opacity:1" />
      <g
         id="g849"
         style="fill:#000000;fill-opacity:1" />
      <g
         id="g851"
         style="fill:#000000;fill-opacity:1" />
      <g
         id="g853"
         style="fill:#000000;fill-opacity:1" />
      <g
         id="g855"
         style="fill:#000000;fill-opacity:1" />
      <g
         id="g857"
         style="fill:#000000;fill-opacity:1" />
      <g
         id="g859"
         style="fill:#000000;fill-opacity:1" />
      <g
         id="g861"
         style="fill:#000000;fill-opacity:1" />
      <g
         id="g863"
         style="fill:#000000;fill-opacity:1" />
    </g>
  </g>
</svg>
